<svg xmlns="http://www.w3.org/2000/svg" fill="none" viewBox="0 0 180 205" xmlns:v="https://vecta.io/nano"><path d="M54.834 100.01c-1.592 4.322-6.69 2.919-13.25-1.194-7.836-4.913-17.924-19.828-14.069-30.171a12.09 12.09 0 0 1 1.41-2.7c7.122-10.247 25.877 23.315 26.336 28.477.218 2.443.054 4.279-.428 5.588z" fill="#5fbbe8"/><path d="M54.834 100.01c-1.592 4.322-6.69 2.919-13.25-1.194-7.836-4.913-17.924-19.828-14.069-30.171 2.473 9.66 9.221 25.526 27.319 31.365z" fill="#5faede"/><path d="M39.432 71.728c1.692 2.404 4.113 6.644 3.328 7.279s-4.968-2.422-7.547-6.469c-1.761-2.764-3.103-6.485-2.341-6.988.864-.559 4.354 3.041 6.56 6.178z" fill="#b1eced"/><path d="M129.67 123.92c0 18.727-13.138 40.716-34.013 40.716-12.936 0-23.582-7.918-29.798-18.507-3.831-6.491-5.992-13.998-5.992-21.295 0-19.187 20.941-18.272 34.211-18.272 14.558 0 31.832-1.115 35.053 12.44.373 1.612.554 3.263.539 4.918z" fill="#5fbbe8"/><path d="M129.67 123.92c0 18.728-13.138 40.717-34.013 40.717-12.936 0-23.582-7.918-29.798-18.507 12.966 6.103 49.89 18.743 63.279-27.137a20.95 20.95 0 0 1 .532 4.927z" fill="#5faede"/><path d="M67.094 117.4c-2.712 4.422-.792 10.713 3.867 13.193 4.92 2.609 11.617.268 13.446-4.92 1.738-4.93-1.611-10.464-6.41-12.006-3.851-1.254-8.646.057-10.902 3.733z" fill="#b1eced"/><path d="M153.36 110.11c-7.343 4.495-12.845 5.662-13.648-.62a17.75 17.75 0 0 1 .015-3.917c.515-5.159 19.617-38.522 26.632-28.206 1.82 2.668 2.396 5.789 2.114 9.046-.81 9.349-8.731 19.792-15.113 23.697z" fill="#5fbbe8"/><path d="M153.36 110.11c-7.343 4.494-12.846 5.661-13.649-.621 4.827-.91 14.536-5.232 28.761-23.072-.809 9.344-8.73 19.787-15.112 23.693z" fill="#5faede"/><path d="M154.6 89.283c-3.239 4.841-9.194 12.779-10.115 12.199-.831-.525 2.322-8.052 7.506-14.356 2.889-3.512 6.713-7.011 7.302-6.54.734.587-3.685 7.19-4.693 8.696z" fill="#b1eced"/><path d="M67.882 57.945a13.49 13.49 0 0 1-1.779-4.74 12.99 12.99 0 0 1 .219-5.698 12.98 12.98 0 0 1 12.774-9.644 13.49 13.49 0 0 1 3.33.432c-.996 15.042-14.544 19.651-14.544 19.651z" fill="#5fbbe8"/><path d="M67.881 57.944a13.5 13.5 0 0 1-1.779-4.74l6.412-7.131a175.34 175.34 0 0 0 6.581-8.212 13.49 13.49 0 0 1 3.33.432L67.881 57.944z" fill="#5faede"/><path d="M135.61 89.883c-5.7 17.708-48.482 13.575-65.156-2.047-4.633-4.338-7.247-9.565-6.496-15.452 3.464-27.082 26.805-46.956 46.858-42.063 7.279 1.774 15.122 6.64 20.684 14.526 7.117 10.109 10.5 25.167 4.11 45.036z" fill="#5fbbe8"/><path d="M129.14 69.805c-.787 3.225-5.244 4.242-10.648 4.172-5.687-.073-12.445-1.349-17.074-2.52-6.626-1.679-19.184-5.832-22.888-10.711-.869-1.137-1.249-2.327-.955-3.528.851-3.492 3.255-6.255 6.456-7.902s7.19-2.17 11.219-1.187l22.394 5.464c4.684 1.137 8.385 4.074 10.327 7.7 1.397 2.618 1.884 5.591 1.17 8.514z" fill="#294f81"/><path d="M129.14 69.804c-.788 3.225-5.244 4.242-10.648 4.172-5.687-.073-12.445-1.349-17.074-2.52-6.626-1.679-19.184-5.832-22.888-10.711 13.241 2.859 36.07 6.392 49.436.548 1.401 2.616 1.888 5.589 1.174 8.512z" fill="#33487a"/><path d="M135.61 89.884c-5.701 17.708-48.483 13.575-65.156-2.047 11.332 4.843 45.443 17.731 55.905 2.334 8.998-13.239 7.015-34.32 5.136-45.323 7.122 10.109 10.504 25.167 4.115 45.036z" fill="#5faede"/><path d="M83.372 42.43c.723 1.67 8.009.325 13.211-1.845 4.988-2.079 10.5-5.93 9.888-7.552-.546-1.44-5.823-.867-9.269.011-7.711 1.961-14.619 7.568-13.83 9.385zM66.955 68.149c-1.019 4.854.805 10.143 2.072 10.122 1.331-.023 2.225-5.898 2.42-9.199.057-.948.4-6.747-.91-7.051-1.019-.223-2.923 2.98-3.583 6.128z" fill="#b1eced"/><path d="M108.02 52.818c-.043.455-3.221.753-6.321.294-5.034-.748-9.162-3.412-8.962-3.935.091-.243 3.21.487 9.444 1.954l5.839 1.688z" fill="#296abd"/><path d="M68.432 44.926c-.107-.136-2.591-3.387-3.303-8.721-.651-4.881.13-12.511 7.534-21.13l1.522 1.308c-5.525 6.43-7.907 12.966-7.079 19.451.617 4.831 2.889 7.832 2.912 7.861l-1.585 1.231z" fill="#5fbbe8"/><path d="M78.133 17.446a4.67 4.67 0 0 0-6.168-7.013 4.67 4.67 0 0 0 6.168 7.013z" fill="#294f81"/><path d="M77.43 13.085c.301-1.351-.55-2.691-1.901-2.992s-2.691.55-2.992 1.901.55 2.691 1.901 2.992 2.691-.55 2.992-1.901z" fill="#296abd"/><path d="M98.175 87.029c-3.148-.682-5.275-2.716-6.631-5.054-2.436-4.188-2.393-9.326-1.349-9.219 1.624.175 4.865 3.562 9.147 4.481 4.92 1.053 8.633.091 11.192.494a4.89 4.89 0 0 1 .334.059c2.568.55-3.027 11.312-12.693 9.24z" fill="#294f81"/><path d="M98.176 87.028c-3.148-.682-5.275-2.716-6.631-5.054 4.44.152 13.293-.134 18.989-4.245.114.016.227.036.334.059 2.568.55-3.027 11.312-12.692 9.24z" fill="#33487a"/><path d="M80.444 57.627a6.76 6.76 0 0 1 1.961-1.406 9.9 9.9 0 0 1 2.307-.787 11 11 0 0 1 4.913.127 11.72 11.72 0 0 1 4.367 2.17 10.69 10.69 0 0 1 3.028 3.674l-4.094-1.943a24.86 24.86 0 0 0-3.947-1.401 20.35 20.35 0 0 0-4.094-.614 26.42 26.42 0 0 0-4.44.18zm30.066 6.552c.542-.603 1.188-1.103 1.908-1.476.719-.383 1.484-.675 2.275-.869 1.613-.389 3.293-.407 4.913-.052a11.7 11.7 0 0 1 4.445 2.009 10.73 10.73 0 0 1 3.159 3.56l-4.153-1.792a25.08 25.08 0 0 0-3.997-1.256 20.37 20.37 0 0 0-4.117-.455c-1.484-.016-2.968.096-4.433.332z" fill="#46aed2"/><path d="M46.085 45.971a1.15 1.15 0 0 1-1.065-.716c-.059-.146-6.005-14.681-16.346-24.953-.216-.214-.337-.505-.338-.809s.119-.596.333-.811.505-.337.809-.338a1.15 1.15 0 0 1 .812.333c10.691 10.614 16.605 25.108 16.858 25.72a1.15 1.15 0 0 1-1.063 1.577zm11.658-14.513c-.288.001-.566-.108-.777-.305a1.14 1.14 0 0 1-.36-.753c-.014-.157-1.297-15.807-8.057-28.722a1.15 1.15 0 0 1-.078-.875c.091-.291.294-.533.563-.673a1.15 1.15 0 0 1 .875-.078c.291.091.532.294.673.563 6.983 13.341 8.257 28.95 8.309 29.607a1.14 1.14 0 0 1-.27.836 1.13 1.13 0 0 1-.353.276 1.14 1.14 0 0 1-.432.118l-.093.005zm93.907 27.12a1.14 1.14 0 0 1-.705-2.047c.519-.405 12.918-9.97 27.485-13.791.294-.077.607-.035.869.119a1.15 1.15 0 0 1 .531.699c.077.294.035.607-.119.869s-.405.453-.699.531c-14.103 3.699-26.536 13.286-26.659 13.384a1.15 1.15 0 0 1-.703.237zm-2.81-18.408a1.14 1.14 0 0 1-.598-.16c-.18-.108-.327-.263-.425-.449s-.142-.396-.127-.605.086-.411.208-.582c.373-.544 9.306-13.405 22.042-21.443.257-.162.568-.216.864-.149a1.15 1.15 0 0 1 .717.506c.162.257.215.568.148.864s-.249.554-.506.716c-12.326 7.782-21.288 20.677-21.382 20.806a1.13 1.13 0 0 1-.409.365c-.164.087-.347.131-.532.131z" fill="#caeff9"/><path d="M85.715 19.593l-2.201.596 2.542 9.386 2.201-.596-2.542-9.385zm65.545 78.09l-.975 9.728 2.282.229.974-9.728-2.281-.228zm-30.42-48.444l-5.748 7.908 1.855 1.348 5.748-7.908-1.855-1.348zM52.758 81.05l-5.748 7.908 1.855 1.348 5.748-7.908-1.855-1.348z" fill="#f6b35b"/><path d="M152.66 9.533l-3.568 7.935 2.092.94 3.568-7.935-2.092-.94zm11.52 62.114l-3.568 7.935 2.091.94 3.568-7.935-2.091-.94zM57.396 37.549l-1.887 1.303 4.944 7.159 1.887-1.303-4.944-7.159zm10.195 56.482l-1.887 1.303 4.943 7.16 1.887-1.303-4.943-7.16z" fill="#ea4754"/><path d="M133.89 20.771l-2.213.6 3.015 11.127 2.213-.6-3.015-11.127zm1.5 63.388l-2.213.6 3.015 11.127 2.213-.6-3.015-11.127zm-30.93-72.048l-4.165 10.749 2.138.828 4.165-10.749-2.138-.828zM48.895 69.602L44.73 80.351l2.138.828 4.165-10.749-2.138-.828z" fill="#92ef9a"/><path d="M94.911 192.8c20.028 0 36.263-4.209 36.263-9.401s-16.235-9.401-36.263-9.401-36.263 4.209-36.263 9.401 16.236 9.401 36.263 9.401z" fill="#6d33aa"/></svg>